<svg width="24" height="30" viewBox="0 0 24 30" fill="none" xmlns="http://www.w3.org/2000/svg">
<path d="M21.0352 0.558594H3.13477C3.13477 0.558594 3.12988 0.558594 3.12012 0.558594C3.11035 0.558594 3.10547 0.558594 3.10547 0.558594C2.38281 0.558594 1.77246 0.807617 1.27441 1.30566C0.776367 1.80371 0.517578 2.4043 0.498047 3.10742V27.0723C0.517578 27.7754 0.776367 28.376 1.27441 28.874C1.77246 29.3721 2.38281 29.6211 3.10547 29.6211C3.10547 29.6211 3.11035 29.6211 3.12012 29.6211C3.12988 29.6211 3.13477 29.6211 3.13477 29.6211H21.0352C21.0352 29.6211 21.04 29.6211 21.0498 29.6211C21.0596 29.6211 21.0645 29.6211 21.0645 29.6211C21.7871 29.6211 22.3975 29.3721 22.8955 28.874C23.3936 28.376 23.6523 27.7754 23.6719 27.0723V3.10742C23.6523 2.4043 23.3936 1.80371 22.8955 1.30566C22.3975 0.807617 21.7871 0.558594 21.0645 0.558594C21.0645 0.558594 21.0596 0.558594 21.0498 0.558594C21.04 0.558594 21.0352 0.558594 21.0352 0.558594ZM22.3535 27.0723C22.334 27.4043 22.2021 27.6924 21.958 27.9365C21.7139 28.1807 21.416 28.3027 21.0645 28.3027C21.0645 28.3027 21.0596 28.3027 21.0498 28.3027C21.04 28.3027 21.0352 28.3027 21.0352 28.3027H3.13477C3.13477 28.3027 3.12988 28.3027 3.12012 28.3027C3.11035 28.3027 3.10547 28.3027 3.10547 28.3027C2.75391 28.3027 2.45605 28.1807 2.21191 27.9365C1.96777 27.6924 1.83594 27.4043 1.81641 27.0723V3.10742C1.83594 2.77539 1.96777 2.4873 2.21191 2.24316C2.45605 1.99902 2.75391 1.87695 3.10547 1.87695C3.10547 1.87695 3.11035 1.87695 3.12012 1.87695C3.12988 1.87695 3.13477 1.87695 3.13477 1.87695H21.0352C21.0352 1.87695 21.04 1.87695 21.0498 1.87695C21.0596 1.87695 21.0645 1.87695 21.0645 1.87695C21.416 1.87695 21.7139 1.99902 21.958 2.24316C22.2021 2.4873 22.334 2.77539 22.3535 3.10742V27.0723ZM19.5117 3.40039H4.59961C4.28711 3.40039 4.01367 3.5127 3.7793 3.7373C3.54492 3.96191 3.42773 4.23047 3.42773 4.54297V7.82422C3.42773 8.13672 3.54492 8.40527 3.7793 8.62988C4.01367 8.85449 4.28711 8.9668 4.59961 8.9668H19.5117C19.8438 8.9668 20.1221 8.85449 20.3467 8.62988C20.5713 8.40527 20.6836 8.13672 20.6836 7.82422V4.54297C20.6836 4.23047 20.5713 3.96191 20.3467 3.7373C20.1221 3.5127 19.8438 3.40039 19.5117 3.40039ZM19.3652 7.64844H4.74609V4.71875H19.3652V7.64844ZM5.83008 10.5195C5.18555 10.5195 4.62891 10.749 4.16016 11.208C3.69141 11.667 3.45703 12.2285 3.45703 12.8926C3.45703 13.5566 3.69141 14.1182 4.16016 14.5771C4.62891 15.0361 5.18555 15.2656 5.83008 15.2656C6.49414 15.2656 7.05566 15.0361 7.51465 14.5771C7.97363 14.1182 8.20312 13.5566 8.20312 12.8926C8.20312 12.2285 7.97363 11.667 7.51465 11.208C7.05566 10.749 6.49414 10.5195 5.83008 10.5195ZM5.83008 13.9473C5.53711 13.9473 5.28809 13.8447 5.08301 13.6396C4.87793 13.4346 4.77539 13.1855 4.77539 12.8926C4.77539 12.5996 4.87793 12.3506 5.08301 12.1455C5.28809 11.9404 5.53711 11.8379 5.83008 11.8379C6.12305 11.8379 6.37207 11.9404 6.57715 12.1455C6.78223 12.3506 6.88477 12.5996 6.88477 12.8926C6.88477 13.1855 6.78223 13.4346 6.57715 13.6396C6.37207 13.8447 6.12305 13.9473 5.83008 13.9473ZM11.9824 10.5195C11.3379 10.5195 10.7812 10.749 10.3125 11.208C9.84375 11.667 9.60938 12.2285 9.60938 12.8926C9.60938 13.5566 9.84375 14.1182 10.3125 14.5771C10.7812 15.0361 11.3379 15.2656 11.9824 15.2656C12.6465 15.2656 13.2129 15.0361 13.6816 14.5771C14.1504 14.1182 14.3848 13.5566 14.3848 12.8926C14.3848 12.2285 14.1504 11.667 13.6816 11.208C13.2129 10.749 12.6465 10.5195 11.9824 10.5195ZM11.9824 13.9473C11.6895 13.9473 11.4404 13.8447 11.2354 13.6396C11.0303 13.4346 10.9277 13.1855 10.9277 12.8926C10.9277 12.5996 11.0303 12.3506 11.2354 12.1455C11.4404 11.9404 11.6895 11.8379 11.9824 11.8379C12.2754 11.8379 12.5293 11.9404 12.7441 12.1455C12.959 12.3506 13.0664 12.5996 13.0664 12.8926C13.0664 13.1855 12.959 13.4346 12.7441 13.6396C12.5293 13.8447 12.2754 13.9473 11.9824 13.9473ZM18.1641 10.5195C17.5 10.5195 16.9336 10.749 16.4648 11.208C15.9961 11.667 15.7617 12.2285 15.7617 12.8926C15.7617 13.5566 15.9961 14.1182 16.4648 14.5771C16.9336 15.0361 17.5 15.2656 18.1641 15.2656C18.8086 15.2656 19.3652 15.0361 19.834 14.5771C20.3027 14.1182 20.5371 13.5566 20.5371 12.8926C20.5371 12.2285 20.3027 11.667 19.834 11.208C19.3652 10.749 18.8086 10.5195 18.1641 10.5195ZM18.1641 13.9473C17.8711 13.9473 17.6172 13.8447 17.4023 13.6396C17.1875 13.4346 17.0801 13.1855 17.0801 12.8926C17.0801 12.5996 17.1875 12.3506 17.4023 12.1455C17.6172 11.9404 17.8711 11.8379 18.1641 11.8379C18.457 11.8379 18.7061 11.9404 18.9111 12.1455C19.1162 12.3506 19.2188 12.5996 19.2188 12.8926C19.2188 13.1855 19.1162 13.4346 18.9111 13.6396C18.7061 13.8447 18.457 13.9473 18.1641 13.9473ZM5.83008 16.2324C5.18555 16.2324 4.62891 16.4619 4.16016 16.9209C3.69141 17.3799 3.45703 17.9414 3.45703 18.6055C3.45703 19.2695 3.69141 19.8311 4.16016 20.29C4.62891 20.749 5.18555 20.9785 5.83008 20.9785C6.49414 20.9785 7.05566 20.749 7.51465 20.29C7.97363 19.8311 8.20312 19.2695 8.20312 18.6055C8.20312 17.9414 7.97363 17.3799 7.51465 16.9209C7.05566 16.4619 6.49414 16.2324 5.83008 16.2324ZM5.83008 19.6602C5.53711 19.6602 5.28809 19.5576 5.08301 19.3525C4.87793 19.1475 4.77539 18.8984 4.77539 18.6055C4.77539 18.3125 4.87793 18.0635 5.08301 17.8584C5.28809 17.6533 5.53711 17.5508 5.83008 17.5508C6.12305 17.5508 6.37207 17.6533 6.57715 17.8584C6.78223 18.0635 6.88477 18.3125 6.88477 18.6055C6.88477 18.8984 6.78223 19.1475 6.57715 19.3525C6.37207 19.5576 6.12305 19.6602 5.83008 19.6602ZM11.9824 16.2324C11.3379 16.2324 10.7812 16.4619 10.3125 16.9209C9.84375 17.3799 9.60938 17.9414 9.60938 18.6055C9.60938 19.2695 9.84375 19.8311 10.3125 20.29C10.7812 20.749 11.3379 20.9785 11.9824 20.9785C12.6465 20.9785 13.2129 20.749 13.6816 20.29C14.1504 19.8311 14.3848 19.2695 14.3848 18.6055C14.3848 17.9414 14.1504 17.3799 13.6816 16.9209C13.2129 16.4619 12.6465 16.2324 11.9824 16.2324ZM11.9824 19.6602C11.6895 19.6602 11.4404 19.5576 11.2354 19.3525C11.0303 19.1475 10.9277 18.8984 10.9277 18.6055C10.9277 18.3125 11.0303 18.0635 11.2354 17.8584C11.4404 17.6533 11.6895 17.5508 11.9824 17.5508C12.2754 17.5508 12.5293 17.6533 12.7441 17.8584C12.959 18.0635 13.0664 18.3125 13.0664 18.6055C13.0664 18.8984 12.959 19.1475 12.7441 19.3525C12.5293 19.5576 12.2754 19.6602 11.9824 19.6602ZM18.1641 16.2324C17.5 16.2324 16.9336 16.4619 16.4648 16.9209C15.9961 17.3799 15.7617 17.9414 15.7617 18.6055C15.7617 19.2695 15.9961 19.8311 16.4648 20.29C16.9336 20.749 17.5 20.9785 18.1641 20.9785C18.8086 20.9785 19.3652 20.749 19.834 20.29C20.3027 19.8311 20.5371 19.2695 20.5371 18.6055C20.5371 17.9414 20.3027 17.3799 19.834 16.9209C19.3652 16.4619 18.8086 16.2324 18.1641 16.2324ZM18.1641 19.6602C17.8711 19.6602 17.6172 19.5576 17.4023 19.3525C17.1875 19.1475 17.0801 18.8984 17.0801 18.6055C17.0801 18.3125 17.1875 18.0635 17.4023 17.8584C17.6172 17.6533 17.8711 17.5508 18.1641 17.5508C18.457 17.5508 18.7061 17.6533 18.9111 17.8584C19.1162 18.0635 19.2188 18.3125 19.2188 18.6055C19.2188 18.8984 19.1162 19.1475 18.9111 19.3525C18.7061 19.5576 18.457 19.6602 18.1641 19.6602ZM5.83008 21.9453C5.18555 21.9453 4.62891 22.1797 4.16016 22.6484C3.69141 23.1172 3.45703 23.6738 3.45703 24.3184C3.45703 24.9824 3.69141 25.5439 4.16016 26.0029C4.62891 26.4619 5.18555 26.6914 5.83008 26.6914C6.49414 26.6914 7.05566 26.4619 7.51465 26.0029C7.97363 25.5439 8.20312 24.9824 8.20312 24.3184C8.20312 23.6738 7.97363 23.1172 7.51465 22.6484C7.05566 22.1797 6.49414 21.9453 5.83008 21.9453ZM5.83008 25.373C5.53711 25.373 5.28809 25.2705 5.08301 25.0654C4.87793 24.8604 4.77539 24.6113 4.77539 24.3184C4.77539 24.0254 4.87793 23.7764 5.08301 23.5713C5.28809 23.3662 5.53711 23.2637 5.83008 23.2637C6.12305 23.2637 6.37207 23.3662 6.57715 23.5713C6.78223 23.7764 6.88477 24.0254 6.88477 24.3184C6.88477 24.6113 6.78223 24.8604 6.57715 25.0654C6.37207 25.2705 6.12305 25.373 5.83008 25.373ZM11.9824 21.9453C11.3379 21.9453 10.7812 22.1797 10.3125 22.6484C9.84375 23.1172 9.60938 23.6738 9.60938 24.3184C9.60938 24.9824 9.84375 25.5439 10.3125 26.0029C10.7812 26.4619 11.3379 26.6914 11.9824 26.6914C12.6465 26.6914 13.2129 26.4619 13.6816 26.0029C14.1504 25.5439 14.3848 24.9824 14.3848 24.3184C14.3848 23.6738 14.1504 23.1172 13.6816 22.6484C13.2129 22.1797 12.6465 21.9453 11.9824 21.9453ZM11.9824 25.373C11.6895 25.373 11.4404 25.2705 11.2354 25.0654C11.0303 24.8604 10.9277 24.6113 10.9277 24.3184C10.9277 24.0254 11.0303 23.7764 11.2354 23.5713C11.4404 23.3662 11.6895 23.2637 11.9824 23.2637C12.2754 23.2637 12.5293 23.3662 12.7441 23.5713C12.959 23.7764 13.0664 24.0254 13.0664 24.3184C13.0664 24.6113 12.959 24.8604 12.7441 25.0654C12.5293 25.2705 12.2754 25.373 11.9824 25.373ZM18.1641 21.9453C17.5 21.9453 16.9336 22.1797 16.4648 22.6484C15.9961 23.1172 15.7617 23.6738 15.7617 24.3184C15.7617 24.9824 15.9961 25.5439 16.4648 26.0029C16.9336 26.4619 17.5 26.6914 18.1641 26.6914C18.8086 26.6914 19.3652 26.4619 19.834 26.0029C20.3027 25.5439 20.5371 24.9824 20.5371 24.3184C20.5371 23.6738 20.3027 23.1172 19.834 22.6484C19.3652 22.1797 18.8086 21.9453 18.1641 21.9453ZM18.1641 25.373C17.8711 25.373 17.6172 25.2705 17.4023 25.0654C17.1875 24.8604 17.0801 24.6113 17.0801 24.3184C17.0801 24.0254 17.1875 23.7764 17.4023 23.5713C17.6172 23.3662 17.8711 23.2637 18.1641 23.2637C18.457 23.2637 18.7061 23.3662 18.9111 23.5713C19.1162 23.7764 19.2188 24.0254 19.2188 24.3184C19.2188 24.6113 19.1162 24.8604 18.9111 25.0654C18.7061 25.2705 18.457 25.373 18.1641 25.373Z" fill="#4154FA"/>
</svg>
