<svg width="31" height="25" viewBox="0 0 31 25" fill="none" xmlns="http://www.w3.org/2000/svg">
<path d="M28.9912 5.79297H27.3213C27.1455 5.79297 26.9795 5.81738 26.8232 5.86621C26.667 5.91504 26.5205 5.97852 26.3838 6.05664L24.6846 1.98438V1.95508C24.4893 1.56445 24.2012 1.24707 23.8203 1.00293C23.4395 0.758789 23.0146 0.636719 22.5459 0.636719H8.89355C8.44434 0.636719 8.0293 0.758789 7.64844 1.00293C7.26758 1.24707 6.96973 1.56445 6.75488 1.95508V2.01367L5.05566 6.05664C4.93848 5.97852 4.79688 5.91504 4.63086 5.86621C4.46484 5.81738 4.30371 5.79297 4.14746 5.79297H2.47754C1.98926 5.79297 1.57422 5.96387 1.23242 6.30566C0.890625 6.64746 0.719727 7.05273 0.719727 7.52148V8.04883C0.719727 8.38086 0.836914 8.66406 1.07129 8.89844C1.30566 9.13281 1.58887 9.25 1.9209 9.25H2.74121C2.50684 9.52344 2.31641 9.82617 2.16992 10.1582C2.02344 10.4902 1.9502 10.8516 1.9502 11.2422V18.5078C1.9502 18.6641 1.97949 18.8154 2.03809 18.9619C2.09668 19.1084 2.1748 19.2305 2.27246 19.3281C2.27246 19.3672 2.26758 19.4014 2.25781 19.4307C2.24805 19.46 2.24316 19.4941 2.24316 19.5332V23.0781C2.24316 23.4688 2.38965 23.8105 2.68262 24.1035C2.97559 24.3965 3.31738 24.543 3.70801 24.543H7.37012C7.38965 24.543 7.4043 24.543 7.41406 24.543C7.42383 24.543 7.42871 24.543 7.42871 24.543C7.56543 24.543 7.69238 24.5186 7.80957 24.4697C7.92676 24.4209 8.03418 24.3477 8.13184 24.25C8.20996 24.1523 8.26855 24.0449 8.30762 23.9277C8.34668 23.8105 8.36621 23.6836 8.36621 23.5469C8.36621 23.5078 8.36621 23.4639 8.36621 23.415C8.36621 23.3662 8.35645 23.3223 8.33691 23.2832V23.3125C8.33691 23.293 8.33691 23.2734 8.33691 23.2539C8.33691 23.2344 8.33691 23.2148 8.33691 23.1953C8.33691 23.1758 8.33691 23.1514 8.33691 23.1221C8.33691 23.0928 8.33691 23.0684 8.33691 23.0488V23.0781V20.3535L23.0732 20.4121V23.0488C23.0732 23.459 23.2148 23.8105 23.498 24.1035C23.7812 24.3965 24.1279 24.543 24.5381 24.543H27.6729C28.0635 24.543 28.4053 24.3965 28.6982 24.1035C28.9912 23.8105 29.1377 23.459 29.1377 23.0488V19.5332C29.1377 19.5137 29.1377 19.499 29.1377 19.4893C29.1377 19.4795 29.1377 19.4648 29.1377 19.4453C29.1377 19.4453 29.1377 19.4404 29.1377 19.4307C29.1377 19.4209 29.1377 19.4062 29.1377 19.3867C29.2549 19.2891 29.3477 19.1621 29.416 19.0059C29.4844 18.8496 29.5186 18.6836 29.5186 18.5078C29.5186 18.5078 29.5186 18.5029 29.5186 18.4932C29.5186 18.4834 29.5186 18.4785 29.5186 18.4785V11.2422C29.5186 10.8516 29.4453 10.4902 29.2988 10.1582C29.1523 9.82617 28.9619 9.52344 28.7275 9.25H29.5479C29.8799 9.25 30.1631 9.13281 30.3975 8.89844C30.6318 8.66406 30.749 8.38086 30.749 8.04883V7.52148C30.749 7.0332 30.5781 6.62305 30.2363 6.29102C29.8945 5.95898 29.4795 5.79297 28.9912 5.79297ZM28.1416 18.3613L23.7471 19.0645L7.63379 19.0059L3.29785 18.3613V11.2422C3.29785 10.7148 3.56641 10.251 4.10352 9.85059C4.64062 9.4502 5.18262 9.25 5.72949 9.25H25.71C26.2568 9.25 26.7988 9.44531 27.3359 9.83594C27.873 10.2266 28.1416 10.6953 28.1416 11.2422V18.3613ZM7.98535 2.54102C8.08301 2.38477 8.20996 2.25293 8.36621 2.14551C8.52246 2.03809 8.69824 1.98438 8.89355 1.98438H22.5459C22.7412 1.98438 22.917 2.03809 23.0732 2.14551C23.2295 2.25293 23.3564 2.38477 23.4541 2.54102L25.5635 7.63867V7.90234H5.87598V7.63867L7.98535 2.54102ZM2.06738 7.52148C2.08691 7.42383 2.13086 7.33594 2.19922 7.25781C2.26758 7.17969 2.36035 7.14062 2.47754 7.14062H4.14746C4.24512 7.14062 4.32812 7.17969 4.39648 7.25781C4.46484 7.33594 4.50879 7.42383 4.52832 7.52148V7.90234H2.06738V7.52148ZM3.70801 23.1953C3.68848 23.1953 3.66406 23.1807 3.63477 23.1514C3.60547 23.1221 3.59082 23.0977 3.59082 23.0781V19.7969L6.95996 20.2656V23.0781C6.95996 23.0977 6.95996 23.1172 6.95996 23.1367C6.95996 23.1562 6.95996 23.1758 6.95996 23.1953H3.70801ZM27.6436 23.1953H24.5088C24.4893 23.1953 24.4648 23.1807 24.4355 23.1514C24.4062 23.1221 24.3916 23.0977 24.3916 23.0781V20.3535L27.7607 19.8262V23.0781C27.7607 23.1172 27.751 23.1465 27.7314 23.166C27.7119 23.1855 27.6826 23.1953 27.6436 23.1953ZM29.3721 7.90234H26.9404V7.52148C26.9404 7.42383 26.9746 7.33594 27.043 7.25781C27.1113 7.17969 27.2041 7.14062 27.3213 7.14062H28.9912C29.0889 7.14062 29.1768 7.17969 29.2549 7.25781C29.333 7.33594 29.3721 7.42383 29.3721 7.52148V7.90234ZM7.01855 10.5977C6.33496 10.5977 5.74902 10.8369 5.26074 11.3154C4.77246 11.7939 4.52832 12.375 4.52832 13.0586C4.52832 13.7422 4.77246 14.3232 5.26074 14.8018C5.74902 15.2803 6.33496 15.5195 7.01855 15.5195C7.70215 15.5195 8.2832 15.2803 8.76172 14.8018C9.24023 14.3232 9.47949 13.7422 9.47949 13.0586C9.47949 12.375 9.24023 11.7939 8.76172 11.3154C8.2832 10.8369 7.70215 10.5977 7.01855 10.5977ZM7.01855 14.1719C6.70605 14.1719 6.44238 14.0645 6.22754 13.8496C6.0127 13.6348 5.90527 13.3711 5.90527 13.0586C5.90527 12.7461 6.0127 12.4824 6.22754 12.2676C6.44238 12.0527 6.70605 11.9453 7.01855 11.9453C7.31152 11.9453 7.57031 12.0527 7.79492 12.2676C8.01953 12.4824 8.13184 12.7461 8.13184 13.0586C8.13184 13.3516 8.01953 13.6055 7.79492 13.8203C7.57031 14.0352 7.31152 14.1426 7.01855 14.1426V14.1719ZM24.3037 10.5977C23.6201 10.5977 23.0342 10.8369 22.5459 11.3154C22.0576 11.7939 21.8135 12.375 21.8135 13.0586C21.8135 13.7422 22.0576 14.3232 22.5459 14.8018C23.0342 15.2803 23.6201 15.5195 24.3037 15.5195C24.9678 15.5195 25.5439 15.2803 26.0322 14.8018C26.5205 14.3232 26.7646 13.7422 26.7646 13.0586C26.7646 12.375 26.5205 11.7939 26.0322 11.3154C25.5439 10.8369 24.9678 10.5977 24.3037 10.5977ZM24.3037 14.1719C23.9912 14.1719 23.7275 14.0645 23.5127 13.8496C23.2979 13.6348 23.1904 13.3711 23.1904 13.0586C23.1904 12.7461 23.2979 12.4824 23.5127 12.2676C23.7275 12.0527 23.9912 11.9453 24.3037 11.9453C24.5967 11.9453 24.8555 12.0527 25.0801 12.2676C25.3047 12.4824 25.417 12.7461 25.417 13.0586C25.3975 13.3516 25.2803 13.6055 25.0654 13.8203C24.8506 14.0352 24.5967 14.1426 24.3037 14.1426V14.1719Z" fill="#4154FA"/>
</svg>
