<svg width="33" height="28" viewBox="0 0 33 28" fill="none" xmlns="http://www.w3.org/2000/svg">
<path d="M30.3493 2.95595L7.90957 -0.00281143C7.87051 -0.00281143 7.82168 -0.00281143 7.76309 -0.00281143C7.7045 -0.00281143 7.64591 -0.00281143 7.58732 -0.00281143C6.90378 -0.00281143 6.31301 0.221781 5.815 0.670965C5.31699 1.12015 5.01916 1.66698 4.92151 2.31146V2.34076L4.21844 8.08251H2.8123C2.0897 8.08251 1.46474 8.34128 0.93744 8.85882C0.410136 9.37636 0.146484 10.0062 0.146484 10.7483V24.5168C0.146484 25.2589 0.410136 25.8888 0.93744 26.4063C1.46474 26.9238 2.0897 27.1826 2.8123 27.1826H25.4278C26.1699 27.1826 26.7997 26.9238 27.3173 26.4063C27.8348 25.8888 28.0936 25.2589 28.0936 24.5168V21.9389H28.2108C28.8943 21.9389 29.4851 21.7143 29.9831 21.2651C30.4811 20.8159 30.7789 20.2691 30.8766 19.6246L32.4292 7.76027C32.4292 7.76027 32.4292 7.75539 32.4292 7.74562C32.4292 7.73586 32.4292 7.73097 32.4292 7.73097C32.4292 7.71144 32.4292 7.70168 32.4292 7.70168C32.4292 7.70168 32.4292 7.69191 32.4292 7.67238C32.4292 7.67238 32.4292 7.6675 32.4292 7.65774C32.4292 7.64797 32.4292 7.63333 32.4292 7.6138L32.6342 5.9733C32.6342 5.91471 32.6391 5.85612 32.6489 5.79753C32.6587 5.73894 32.6635 5.68035 32.6635 5.62176C32.6635 4.93822 32.4438 4.34744 32.0044 3.84943C31.565 3.35143 31.023 3.0536 30.3786 2.95595H30.3493ZM6.85496 1.72557C6.95261 1.62792 7.0649 1.55957 7.19185 1.52051C7.31879 1.48145 7.45062 1.46192 7.58732 1.46192C7.62638 1.46192 7.65568 1.46192 7.67521 1.46192C7.69474 1.46192 7.71427 1.46192 7.7338 1.46192L30.1735 4.36209C30.4664 4.40115 30.7203 4.53786 30.9352 4.77221C31.15 5.00657 31.2574 5.27999 31.2574 5.59246C31.2574 5.61199 31.2525 5.64129 31.2428 5.68035C31.233 5.71941 31.2281 5.7487 31.2281 5.76823L31.0816 6.79354L6.23977 3.57113L6.38624 2.51653C6.40577 2.36029 6.4546 2.20893 6.53272 2.06246C6.61084 1.91599 6.71825 1.80369 6.85496 1.72557ZM26.6581 24.5461C26.6581 24.8781 26.5361 25.1613 26.292 25.3956C26.0478 25.63 25.7598 25.7472 25.4278 25.7472H2.8123C2.48029 25.7472 2.19711 25.63 1.96275 25.3956C1.7284 25.1613 1.61122 24.8781 1.61122 24.5461C1.61122 24.5461 1.61122 24.5412 1.61122 24.5315C1.61122 24.5217 1.61122 24.5168 1.61122 24.5168V10.7483C1.61122 10.4163 1.7284 10.1283 1.96275 9.88413C2.19711 9.64001 2.48029 9.51795 2.8123 9.51795H25.4278C25.7598 9.51795 26.0478 9.64001 26.292 9.88413C26.5361 10.1283 26.6581 10.4163 26.6581 10.7483V24.5461ZM29.4118 19.4195C29.3728 19.732 29.2409 19.9859 29.0164 20.1812C28.7918 20.3765 28.5232 20.4741 28.2108 20.4741C28.1912 20.4741 28.1717 20.4741 28.1522 20.4741C28.1326 20.4741 28.1131 20.4741 28.0936 20.4741V10.7483C28.0936 10.0062 27.8348 9.37636 27.3173 8.85882C26.7997 8.34128 26.1699 8.08251 25.4278 8.08251H5.68317L6.064 5.00657L30.8766 8.22898L29.4118 19.4195ZM4.77504 17.4861H10.839C11.0343 17.4861 11.2052 17.4129 11.3517 17.2664C11.4982 17.1199 11.5714 16.949 11.5714 16.7537V12.8575C11.5714 12.6622 11.4982 12.4962 11.3517 12.3595C11.2052 12.2228 11.0343 12.1545 10.839 12.1545H4.77504C4.56021 12.1545 4.38444 12.2228 4.24773 12.3595C4.11103 12.4962 4.04267 12.6622 4.04267 12.8575V16.7537C4.04267 16.949 4.11103 17.1199 4.24773 17.2664C4.38444 17.4129 4.56021 17.4861 4.77504 17.4861ZM5.5074 13.5899H10.1067V16.0214H5.5074V13.5899ZM11.3077 21.3823H4.51139C4.31609 21.3823 4.1452 21.4506 3.99873 21.5873C3.85226 21.724 3.77902 21.8901 3.77902 22.0853C3.77902 22.3002 3.85226 22.4759 3.99873 22.6127C4.1452 22.7494 4.31609 22.8177 4.51139 22.8177H11.3077C11.5226 22.8177 11.6983 22.7494 11.835 22.6127C11.9718 22.4759 12.0401 22.3002 12.0401 22.0853C12.0401 21.8901 11.9718 21.724 11.835 21.5873C11.6983 21.4506 11.5226 21.3823 11.3077 21.3823Z" fill="#4154FA"/>
</svg>
