<svg width="30" height="31" viewBox="0 0 30 31" fill="none" xmlns="http://www.w3.org/2000/svg">
<path d="M29.7363 14.5625L26.0742 10.9297V4.19141C26.0742 3.99609 26.0107 3.83496 25.8838 3.70801C25.7568 3.58105 25.5957 3.51758 25.4004 3.51758H21.709C21.5137 3.51758 21.3477 3.58105 21.2109 3.70801C21.0742 3.83496 21.0059 3.99609 21.0059 4.19141V5.86133L15.4395 0.294922C15.3809 0.216797 15.3125 0.163086 15.2344 0.133789C15.1562 0.104492 15.0684 0.0898438 14.9707 0.0898438C14.873 0.0898438 14.7803 0.104492 14.6924 0.133789C14.6045 0.163086 14.5312 0.216797 14.4727 0.294922L0.205078 14.5625C0.146484 14.6211 0.0976562 14.6943 0.0585938 14.7822C0.0195312 14.8701 0 14.9531 0 15.0312C0 15.1094 0.00976562 15.1826 0.0292969 15.251C0.0488281 15.3193 0.078125 15.373 0.117188 15.4121L1.81641 17.9902C1.875 18.0879 1.94824 18.1611 2.03613 18.21C2.12402 18.2588 2.2168 18.293 2.31445 18.3125H2.40234C2.48047 18.3125 2.56348 18.293 2.65137 18.2539C2.73926 18.2148 2.8125 18.166 2.87109 18.1074L3.86719 17.1113V29.416C3.86719 29.5918 3.93066 29.748 4.05762 29.8848C4.18457 30.0215 4.3457 30.0898 4.54102 30.0898H25.3711C25.5664 30.0898 25.7275 30.0215 25.8545 29.8848C25.9814 29.748 26.0449 29.5918 26.0449 29.416V17.1113L27.041 18.1074C27.0996 18.166 27.1729 18.2148 27.2607 18.2539C27.3486 18.293 27.4316 18.3125 27.5098 18.3125C27.6465 18.3125 27.7637 18.2832 27.8613 18.2246C27.959 18.166 28.0371 18.0879 28.0957 17.9902L29.7949 15.4121C29.834 15.3535 29.8633 15.2949 29.8828 15.2363C29.9023 15.1777 29.9121 15.1094 29.9121 15.0312C29.9121 14.9336 29.8975 14.8457 29.8682 14.7676C29.8389 14.6895 29.7852 14.6211 29.707 14.5625H29.7363ZM22.3828 7.0625V4.86523H24.6973V9.52344L22.3535 7.20898C22.373 7.18945 22.3828 7.16504 22.3828 7.13574C22.3828 7.10645 22.3828 7.08203 22.3828 7.0625ZM24.6973 15.793V28.7129H5.24414V15.9102C5.24414 15.9102 5.24414 15.9004 5.24414 15.8809C5.24414 15.8613 5.24414 15.8516 5.24414 15.8516C5.24414 15.832 5.24414 15.8174 5.24414 15.8076C5.24414 15.7979 5.23438 15.7832 5.21484 15.7637H5.24414L14.9707 6.00781L24.6973 15.7637C24.6973 15.7637 24.6973 15.7686 24.6973 15.7783C24.6973 15.7881 24.6973 15.793 24.6973 15.793ZM27.4219 16.5547L15.4395 4.57227C15.3809 4.51367 15.3125 4.46484 15.2344 4.42578C15.1562 4.38672 15.0684 4.36719 14.9707 4.36719C14.873 4.36719 14.7803 4.38672 14.6924 4.42578C14.6045 4.46484 14.5312 4.51367 14.4727 4.57227L2.49023 16.5547L1.55273 15.1191L14.9707 1.73047L28.3594 15.1191L27.4219 16.5547ZM14.0039 12.2773V13.5957C12.9102 13.7324 12.2266 14.0938 11.9531 14.6797C11.6797 15.2656 11.543 15.7246 11.543 16.0566C11.543 16.9551 11.7969 17.6045 12.3047 18.0049C12.8125 18.4053 13.3594 18.752 13.9453 19.0449L14.3555 19.25C14.375 19.25 14.3945 19.2549 14.4141 19.2646C14.4336 19.2744 14.4531 19.2793 14.4727 19.2793L14.502 19.3086L14.6191 19.3672C15.3027 19.6992 15.8008 19.9971 16.1133 20.2607C16.4258 20.5244 16.582 20.9199 16.582 21.4473C16.582 21.6621 16.4941 21.9502 16.3184 22.3115C16.1426 22.6729 15.5273 22.8535 14.4727 22.8535C13.6719 22.8535 13.1738 22.7217 12.9785 22.458C12.7832 22.1943 12.6855 22.043 12.6855 22.0039C12.666 21.8281 12.5928 21.6768 12.4658 21.5498C12.3389 21.4229 12.1875 21.3594 12.0117 21.3594C11.8164 21.3594 11.6504 21.4277 11.5137 21.5645C11.377 21.7012 11.3086 21.8672 11.3086 22.0625C11.3086 22.0625 11.3086 22.0674 11.3086 22.0771C11.3086 22.0869 11.3086 22.1016 11.3086 22.1211C11.3477 22.4531 11.5576 22.8633 11.9385 23.3516C12.3193 23.8398 13.0078 24.123 14.0039 24.2012V25.0801C14.0039 25.2754 14.0723 25.4414 14.209 25.5781C14.3457 25.7148 14.502 25.7832 14.6777 25.7832C14.873 25.7832 15.0391 25.7148 15.1758 25.5781C15.3125 25.4414 15.3809 25.2754 15.3809 25.0801V24.1719C16.5137 23.9961 17.2217 23.5957 17.5049 22.9707C17.7881 22.3457 17.9297 21.8477 17.9297 21.4766C17.9297 20.5 17.6465 19.7871 17.0801 19.3379C16.5137 18.8887 15.8984 18.498 15.2344 18.166L14.7949 17.9316C14.7754 17.9121 14.751 17.8975 14.7217 17.8877C14.6924 17.8779 14.668 17.873 14.6484 17.873L14.5605 17.8145C13.9746 17.5215 13.5547 17.2676 13.3008 17.0527C13.0469 16.8379 12.9199 16.5059 12.9199 16.0566C12.9199 15.9004 12.9932 15.6709 13.1396 15.3682C13.2861 15.0654 13.7988 14.9141 14.6777 14.9141C15.3223 14.9141 15.7227 15.0166 15.8789 15.2217C16.0352 15.4268 16.123 15.5586 16.1426 15.6172C16.1621 15.793 16.2354 15.9395 16.3623 16.0566C16.4893 16.1738 16.6406 16.2324 16.8164 16.2324C17.0117 16.2324 17.1777 16.1641 17.3145 16.0273C17.4512 15.8906 17.5195 15.7344 17.5195 15.5586C17.5195 15.5391 17.5146 15.5244 17.5049 15.5146C17.4951 15.5049 17.4902 15.5 17.4902 15.5C17.4707 15.207 17.3096 14.8506 17.0068 14.4307C16.7041 14.0107 16.1719 13.7422 15.4102 13.625V12.248C15.4102 12.0527 15.3418 11.8916 15.2051 11.7646C15.0684 11.6377 14.9023 11.5742 14.707 11.5742C14.5312 11.5742 14.375 11.6377 14.2383 11.7646C14.1016 11.8916 14.0332 12.0527 14.0332 12.248L14.0039 12.2773Z" fill="#4154FA"/>
</svg>
