<svg width="32" height="31" viewBox="0 0 32 31" fill="none" xmlns="http://www.w3.org/2000/svg">
<path d="M16.71 3.16797V1.32227C16.71 1.32227 16.71 1.31738 16.71 1.30762C16.71 1.29785 16.71 1.29297 16.71 1.29297C16.71 1.09766 16.6416 0.931641 16.5049 0.794922C16.3682 0.658203 16.2021 0.589844 16.0068 0.589844C15.8115 0.589844 15.6455 0.658203 15.5088 0.794922C15.3721 0.931641 15.3037 1.09766 15.3037 1.29297V3.16797C13.3896 3.22656 11.5439 3.61719 9.7666 4.33984C7.98926 5.0625 6.41211 6.00488 5.03516 7.16699C3.6582 8.3291 2.55957 9.65234 1.73926 11.1367C0.918945 12.6211 0.508789 14.1543 0.508789 15.7363C0.508789 15.9316 0.577148 16.0977 0.713867 16.2344C0.850586 16.3711 1.0166 16.4395 1.21191 16.4395C1.27051 16.4395 1.31934 16.4346 1.3584 16.4248C1.39746 16.415 1.43652 16.4004 1.47559 16.3809L2.44238 16C3.24316 15.6484 4.05371 15.541 4.87402 15.6777C5.71387 15.8145 6.47559 16.0391 7.15918 16.3516C7.84277 16.6641 8.41895 16.9961 8.8877 17.3477C9.37598 17.6992 9.66895 17.9238 9.7666 18.0215C9.8252 18.0801 9.89844 18.124 9.98633 18.1533C10.0742 18.1826 10.167 18.1973 10.2646 18.1973C10.4014 18.1973 10.5234 18.168 10.6309 18.1094C10.7383 18.0508 10.8311 17.9629 10.9092 17.8457C11.5146 16.9473 12.291 16.3516 13.2383 16.0586C14.1855 15.7656 14.8838 15.5996 15.333 15.5605V27.1621C15.333 27.1816 15.333 27.1914 15.333 27.1914C15.333 27.1914 15.333 27.2012 15.333 27.2207C15.333 28.1582 15.6602 28.9541 16.3145 29.6084C16.9688 30.2627 17.7646 30.5898 18.7021 30.5898C18.7021 30.5898 18.7119 30.5898 18.7314 30.5898C19.6689 30.5898 20.4746 30.2529 21.1484 29.5791C21.8223 28.9053 22.1592 28.0898 22.1592 27.1328C22.1592 26.9375 22.0908 26.7715 21.9541 26.6348C21.8174 26.498 21.6514 26.4297 21.4561 26.4297C21.2607 26.4297 21.0947 26.498 20.958 26.6348C20.8213 26.7715 20.7529 26.9375 20.7529 27.1328C20.7529 27.6992 20.5527 28.1826 20.1523 28.583C19.752 28.9834 19.2783 29.1836 18.7314 29.1836C18.165 29.1836 17.6914 28.9883 17.3105 28.5977C16.9297 28.207 16.7393 27.7383 16.7393 27.1914V15.5898C17.5986 15.668 18.3896 15.9121 19.1123 16.3223C19.835 16.7324 20.4404 17.2695 20.9287 17.9336C20.9873 18.0312 21.0703 18.1094 21.1777 18.168C21.2852 18.2266 21.3975 18.2559 21.5146 18.2559C21.6514 18.2559 21.7686 18.2266 21.8662 18.168C21.9639 18.1094 22.0518 18.0312 22.1299 17.9336C22.7158 16.9766 23.4678 16.3516 24.3857 16.0586C25.3037 15.7461 26.2021 15.5947 27.0811 15.6045C27.96 15.6143 28.7119 15.707 29.3369 15.8828C29.9814 16.0586 30.3135 16.1465 30.333 16.1465C30.3721 16.166 30.4111 16.1758 30.4502 16.1758C30.4893 16.1758 30.5283 16.1758 30.5674 16.1758C30.7627 16.1758 30.9287 16.1074 31.0654 15.9707C31.2021 15.834 31.2705 15.668 31.2705 15.4727C31.2705 13.9492 30.8604 12.4746 30.04 11.0488C29.2393 9.62305 28.1699 8.34375 26.832 7.21094C25.4941 6.07812 23.9463 5.15039 22.1885 4.42773C20.4307 3.70508 18.6045 3.28516 16.71 3.16797ZM4.28809 14.2422C3.87793 14.2422 3.47754 14.2812 3.08691 14.3594C2.69629 14.4375 2.3252 14.5547 1.97363 14.7109H2.00293C2.17871 13.5391 2.6084 12.4062 3.29199 11.3125C3.97559 10.2188 4.83984 9.22266 5.88477 8.32422C6.92969 7.42578 8.11621 6.66406 9.44434 6.03906C10.7529 5.41406 12.1201 4.98438 13.5459 4.75C13.0771 5.17969 12.5889 5.72656 12.0811 6.39062C11.5732 7.03516 11.1191 7.82129 10.7188 8.74902C10.3184 9.67676 10.001 10.7363 9.7666 11.9277C9.5127 13.1387 9.41504 14.5156 9.47363 16.0586C8.86816 15.6484 8.11133 15.2432 7.20312 14.8428C6.29492 14.4424 5.32324 14.2422 4.28809 14.2422ZM15.6846 14.125C14.7666 14.1445 13.8975 14.3057 13.0771 14.6084C12.2568 14.9111 11.5146 15.3164 10.8506 15.8242H10.8799C10.8213 13.9102 10.9971 12.2793 11.4072 10.9316C11.8369 9.58398 12.3447 8.46582 12.9307 7.57715C13.5166 6.68848 14.1123 6.00977 14.7178 5.54102C15.3037 5.07227 15.7432 4.75977 16.0361 4.60352C16.29 4.74023 16.6611 5.02344 17.1494 5.45312C17.6572 5.86328 18.165 6.49316 18.6729 7.34277C19.1807 8.19238 19.6396 9.30078 20.0498 10.668C20.4795 12.0352 20.7236 13.7344 20.7822 15.7656C20.1377 15.2578 19.4102 14.8574 18.5996 14.5645C17.7891 14.2715 16.9346 14.125 16.0361 14.125C15.9775 14.125 15.9141 14.125 15.8457 14.125C15.7773 14.125 15.7139 14.125 15.6553 14.125H15.6846ZM22.2178 15.6777C22.1592 14.1738 22.0029 12.8359 21.749 11.6641C21.5146 10.5117 21.2168 9.49121 20.8555 8.60254C20.4941 7.71387 20.1084 6.95703 19.6982 6.33203C19.2881 5.72656 18.8877 5.20898 18.4971 4.7793C19.9229 5.0332 21.29 5.47266 22.5986 6.09766C23.8877 6.72266 25.04 7.46973 26.0557 8.33887C27.0713 9.20801 27.9111 10.1699 28.5752 11.2246C29.2393 12.2988 29.6494 13.4023 29.8057 14.5352C28.9463 14.3203 27.7646 14.2031 26.2607 14.1836C24.7568 14.1641 23.3994 14.6719 22.1885 15.707L22.2178 15.6777Z" fill="#4154FA"/>
</svg>
