<svg width="26" height="30" viewBox="0 0 26 30" fill="none" xmlns="http://www.w3.org/2000/svg">
<path d="M25.2461 25.5176C25.0898 25.0879 24.9141 24.502 24.7188 23.7598C24.5234 23.0176 24.4258 21.8848 24.4258 20.3613C24.4258 18.0566 24.1279 16.1865 23.5322 14.751C22.9365 13.3154 21.9453 12.0801 20.5586 11.0449C20.4219 10.9473 20.2803 10.8447 20.1338 10.7373C19.9873 10.6299 19.8262 10.5176 19.6504 10.4004C19.2012 10.0879 18.7324 9.74609 18.2441 9.375C17.7559 9.00391 17.3848 8.62305 17.1309 8.23242C17.1309 8.23242 17.1357 8.22266 17.1455 8.20312C17.1553 8.18359 17.1699 8.16406 17.1895 8.14453C17.5215 7.55859 17.9072 7.02637 18.3467 6.54785C18.7861 6.06934 19.2695 5.64453 19.7969 5.27344H19.8262C20.6465 4.70703 21.1543 4.1748 21.3496 3.67676C21.5449 3.17871 21.6523 2.90039 21.6719 2.8418C21.6719 2.8418 21.6719 2.83203 21.6719 2.8125C21.6719 2.79297 21.6719 2.77344 21.6719 2.75391C21.6719 2.67578 21.6572 2.59277 21.6279 2.50488C21.5986 2.41699 21.5547 2.34375 21.4961 2.28516C21.4375 2.22656 21.3643 2.17285 21.2764 2.12402C21.1885 2.0752 21.0957 2.05078 20.998 2.05078C20.998 2.05078 20.9932 2.05078 20.9834 2.05078C20.9736 2.05078 20.9688 2.05078 20.9688 2.05078C20.6367 2.05078 20.2754 2.00684 19.8848 1.91895C19.4941 1.83105 19.2695 1.69922 19.2109 1.52344C19.1328 1.26953 18.9912 1.04492 18.7861 0.849609C18.5811 0.654297 18.3516 0.527344 18.0977 0.46875C17.6289 0.332031 17.1016 0.375977 16.5156 0.600586C15.9297 0.825195 15.334 1.21094 14.7285 1.75781C14.5137 1.66016 14.3135 1.55273 14.1279 1.43555C13.9424 1.31836 13.7617 1.20117 13.5859 1.08398H13.6152C13.2051 0.810547 12.7998 0.561523 12.3994 0.336914C11.999 0.112305 11.6035 0 11.2129 0C10.373 0 9.77246 0.249023 9.41113 0.74707C9.0498 1.24512 8.78125 1.67969 8.60547 2.05078C8.58594 2.10938 8.56152 2.16797 8.53223 2.22656C8.50293 2.28516 8.46875 2.34375 8.42969 2.40234C7.94141 2.10938 7.45801 1.93848 6.97949 1.88965C6.50098 1.84082 6.0957 1.9043 5.76367 2.08008C5.58789 2.17773 5.44141 2.31445 5.32422 2.49023C5.20703 2.66602 5.14844 2.86133 5.14844 3.07617C5.14844 3.44727 5.28027 3.79883 5.54395 4.13086C5.80762 4.46289 6.11523 4.80469 6.4668 5.15625C6.52539 5.21484 6.59375 5.2832 6.67188 5.36133C6.75 5.43945 6.82812 5.51758 6.90625 5.5957L7.16992 5.85938C7.50195 6.17188 7.80469 6.51367 8.07812 6.88477C8.35156 7.25586 8.57617 7.64648 8.75195 8.05664L8.78125 8.08594C8.78125 8.10547 8.78613 8.125 8.7959 8.14453C8.80566 8.16406 8.82031 8.18359 8.83984 8.20312L8.81055 8.26172C8.63477 8.59375 8.41504 8.86719 8.15137 9.08203C7.8877 9.29688 7.52148 9.56055 7.05273 9.87305C6.83789 10.0098 6.59375 10.1758 6.32031 10.3711C6.04688 10.5664 5.74414 10.7812 5.41211 11.0156C4.04492 12.0703 3.06348 13.3154 2.46777 14.751C1.87207 16.1865 1.57422 18.0566 1.57422 20.3613C1.57422 21.8848 1.47656 23.0176 1.28125 23.7598C1.08594 24.502 0.910156 25.0879 0.753906 25.5176C0.636719 25.7129 0.548828 25.9326 0.490234 26.1768C0.431641 26.4209 0.392578 26.6699 0.373047 26.9238C0.373047 27.5879 0.8125 28.125 1.69141 28.5352C2.57031 28.9453 3.64941 29.2578 4.92871 29.4727C6.20801 29.6875 7.58008 29.8242 9.04492 29.8828C10.5098 29.9609 11.8281 30 13 30C14.1719 30 15.4902 29.9609 16.9551 29.8828C18.4199 29.8242 19.792 29.6875 21.0713 29.4727C22.3506 29.2578 23.4297 28.9453 24.3086 28.5352C25.1875 28.125 25.627 27.5879 25.627 26.9238C25.6074 26.6699 25.5635 26.4209 25.4951 26.1768C25.4268 25.9326 25.3438 25.7031 25.2461 25.4883V25.5176ZM8.16602 4.92188L7.93164 4.6875C7.83398 4.58984 7.74609 4.50195 7.66797 4.42383C7.58984 4.3457 7.51172 4.26758 7.43359 4.18945C7.27734 4.0332 7.13574 3.88184 7.00879 3.73535C6.88184 3.58887 6.75 3.4375 6.61328 3.28125V3.25195C6.84766 3.27148 7.07227 3.31543 7.28711 3.38379C7.50195 3.45215 7.69727 3.54492 7.87305 3.66211C7.9707 3.7207 8.07324 3.76953 8.18066 3.80859C8.28809 3.84766 8.40039 3.86719 8.51758 3.86719C8.57617 3.86719 8.63477 3.8623 8.69336 3.85254C8.75195 3.84277 8.80078 3.83789 8.83984 3.83789C9.11328 3.74023 9.31836 3.5791 9.45508 3.35449C9.5918 3.12988 9.71875 2.89062 9.83594 2.63672C10.0312 2.22656 10.2168 1.91406 10.3926 1.69922C10.5684 1.48438 10.8418 1.37695 11.2129 1.37695C11.3887 1.37695 11.6377 1.47461 11.96 1.66992C12.2822 1.86523 12.5801 2.05078 12.8535 2.22656C13.3613 2.55859 13.8398 2.82715 14.2891 3.03223C14.7383 3.2373 15.1484 3.17383 15.5195 2.8418C16.0859 2.33398 16.5596 2.0166 16.9404 1.88965C17.3213 1.7627 17.5801 1.71875 17.7168 1.75781C17.7559 1.75781 17.79 1.77246 17.8193 1.80176C17.8486 1.83105 17.8828 1.88477 17.9219 1.96289C18.0586 2.41211 18.3271 2.73926 18.7275 2.94434C19.1279 3.14941 19.5234 3.29102 19.9141 3.36914C19.7969 3.50586 19.665 3.6377 19.5186 3.76465C19.3721 3.8916 19.2207 4.00391 19.0645 4.10156V4.13086C18.4785 4.52148 17.9463 4.9707 17.4678 5.47852C16.9893 5.98633 16.5645 6.5332 16.1934 7.11914L16.1641 7.14844H9.86523C9.63086 6.71875 9.37207 6.31836 9.08887 5.94727C8.80566 5.57617 8.49805 5.23438 8.16602 4.92188ZM13 28.623C10.832 28.623 9.02539 28.5547 7.58008 28.418C6.1543 28.2812 5.0166 28.1201 4.16699 27.9346C3.31738 27.749 2.7168 27.5586 2.36523 27.3633C1.99414 27.1875 1.78906 27.041 1.75 26.9238C1.76953 26.748 1.80371 26.5869 1.85254 26.4404C1.90137 26.2939 1.95508 26.1426 2.01367 25.9863V26.0156C2.20898 25.5469 2.40918 24.9023 2.61426 24.082C2.81934 23.2617 2.92188 22.0215 2.92188 20.3613C2.92188 17.959 3.21973 16.1768 3.81543 15.0146C4.41113 13.8525 5.2168 12.8906 6.23242 12.1289C6.54492 11.8945 6.82812 11.6895 7.08203 11.5137C7.33594 11.3379 7.58008 11.1719 7.81445 11.0156C8.30273 10.6836 8.73242 10.3711 9.10352 10.0781C9.47461 9.78516 9.77734 9.39453 10.0117 8.90625C10.0312 8.84766 10.0508 8.79395 10.0703 8.74512C10.0898 8.69629 10.0996 8.64258 10.0996 8.58398C10.0996 8.56445 10.0947 8.5498 10.085 8.54004C10.0752 8.53027 10.0703 8.51562 10.0703 8.49609V8.52539H15.7246C16.0176 9.11133 16.4668 9.64844 17.0723 10.1367C17.6777 10.625 18.2832 11.084 18.8887 11.5137C19.0449 11.6113 19.1963 11.7139 19.3428 11.8213C19.4893 11.9287 19.6211 12.0215 19.7383 12.0996C20.7539 12.8809 21.5596 13.8525 22.1553 15.0146C22.751 16.1768 23.0488 17.959 23.0488 20.3613C23.0488 22.0215 23.1562 23.2617 23.3711 24.082C23.5859 24.9023 23.7812 25.5469 23.957 26.0156C24.0352 26.1328 24.0938 26.2695 24.1328 26.4258C24.1719 26.582 24.2012 26.7383 24.2207 26.8945V26.9238C24.1816 27.0215 23.9863 27.168 23.6348 27.3633C23.2832 27.5586 22.6777 27.749 21.8184 27.9346C20.959 28.1201 19.8164 28.2812 18.3906 28.418C16.9648 28.5547 15.168 28.623 13 28.623ZM13.5566 18.2812L13.0879 18.0469C13.0684 18.0469 13.0488 18.042 13.0293 18.0322C13.0098 18.0225 12.9805 18.0078 12.9414 17.9883L12.8828 17.959C12.3359 17.6855 11.9404 17.4463 11.6963 17.2412C11.4521 17.0361 11.3301 16.7285 11.3301 16.3184C11.3301 16.1621 11.3984 15.9473 11.5352 15.6738C11.6719 15.4004 12.1504 15.2637 12.9707 15.2637C13.5762 15.2637 13.9521 15.3564 14.0986 15.542C14.2451 15.7275 14.3281 15.8398 14.3477 15.8789C14.3672 16.0547 14.4404 16.2061 14.5674 16.333C14.6943 16.46 14.8457 16.5234 15.0215 16.5234C15.2168 16.5234 15.3828 16.4551 15.5195 16.3184C15.6562 16.1816 15.7246 16.0156 15.7246 15.8203C15.7246 15.8203 15.7246 15.8154 15.7246 15.8057C15.7246 15.7959 15.7246 15.7812 15.7246 15.7617C15.7051 15.4883 15.5488 15.1465 15.2559 14.7363C14.9629 14.3262 14.4453 14.0625 13.7031 13.9453V12.6855C13.7031 12.4902 13.6348 12.3291 13.498 12.2021C13.3613 12.0752 13.1953 12.0117 13 12.0117C12.8242 12.0117 12.668 12.0752 12.5312 12.2021C12.3945 12.3291 12.3262 12.4902 12.3262 12.6855V13.9453C11.2715 14.0625 10.6123 14.4043 10.3486 14.9707C10.085 15.5371 9.95312 15.9863 9.95312 16.3184C9.95312 17.1777 10.2021 17.8027 10.7002 18.1934C11.1982 18.584 11.7207 18.916 12.2676 19.1895L12.6484 19.3945C12.668 19.3945 12.6875 19.3994 12.707 19.4092C12.7266 19.4189 12.7461 19.4238 12.7656 19.4238L12.9121 19.5117C13.5566 19.8242 14.0254 20.1025 14.3184 20.3467C14.6113 20.5908 14.7578 20.9668 14.7578 21.4746C14.7578 21.6699 14.6748 21.9385 14.5088 22.2803C14.3428 22.6221 13.7617 22.793 12.7656 22.793C12.0234 22.793 11.5645 22.6709 11.3887 22.4268C11.2129 22.1826 11.1152 22.0312 11.0957 21.9727C11.0762 21.7969 11.0029 21.6504 10.876 21.5332C10.749 21.416 10.5977 21.3574 10.4219 21.3574C10.2266 21.3574 10.0605 21.4258 9.92383 21.5625C9.78711 21.6992 9.71875 21.8555 9.71875 22.0312C9.71875 22.0508 9.71875 22.0654 9.71875 22.0752C9.71875 22.085 9.71875 22.0898 9.71875 22.0898C9.73828 22.4219 9.93359 22.8223 10.3047 23.291C10.6758 23.7598 11.3398 24.043 12.2969 24.1406V24.9609C12.2969 25.1367 12.3652 25.293 12.502 25.4297C12.6387 25.5664 12.7949 25.6348 12.9707 25.6348C13.166 25.6348 13.332 25.5664 13.4688 25.4297C13.6055 25.293 13.6738 25.1367 13.6738 24.9609V24.082C14.7676 23.9258 15.4463 23.5449 15.71 22.9395C15.9736 22.334 16.1055 21.8457 16.1055 21.4746C16.125 20.5176 15.8613 19.8242 15.3145 19.3945C14.7676 18.9648 14.1816 18.5938 13.5566 18.2812Z" fill="#4154FA"/>
</svg>
