<svg width="31" height="31" viewBox="0 0 31 31" fill="none" xmlns="http://www.w3.org/2000/svg">
<path d="M9.40527 23.5293H21.6514C21.8467 23.5293 22.0127 23.4609 22.1494 23.3242C22.2861 23.1875 22.3545 23.0215 22.3545 22.8262V14.7988L23.4092 15.8535C23.4678 15.9121 23.541 15.9561 23.6289 15.9854C23.7168 16.0146 23.7998 16.0293 23.8779 16.0293C24.0732 16.0293 24.2441 15.9609 24.3906 15.8242C24.5371 15.6875 24.6104 15.5215 24.6104 15.3262C24.6104 15.2285 24.5908 15.1406 24.5518 15.0625C24.5127 14.9844 24.4639 14.9062 24.4053 14.8281L22.3545 12.748C22.335 12.709 22.3203 12.6699 22.3105 12.6309C22.3008 12.5918 22.2764 12.5625 22.2373 12.543V7.91406C22.2373 7.71875 22.1689 7.55273 22.0322 7.41602C21.8955 7.2793 21.7295 7.21094 21.5342 7.21094H18.9268C18.7314 7.21094 18.5654 7.2793 18.4287 7.41602C18.292 7.55273 18.2236 7.71875 18.2236 7.91406V8.64648L16.0264 6.44922C15.9678 6.39062 15.8945 6.3418 15.8066 6.30273C15.7188 6.26367 15.626 6.24414 15.5283 6.24414C15.4307 6.24414 15.3379 6.26367 15.25 6.30273C15.1621 6.3418 15.0889 6.39062 15.0303 6.44922L6.65137 14.8281C6.59277 14.9062 6.54395 14.9844 6.50488 15.0625C6.46582 15.1406 6.44629 15.2285 6.44629 15.3262C6.44629 15.5215 6.51465 15.6924 6.65137 15.8389C6.78809 15.9854 6.9541 16.0586 7.14941 16.0586C7.24707 16.0586 7.33984 16.0391 7.42773 16C7.51562 15.9609 7.58887 15.9121 7.64746 15.8535L8.70215 14.7695V22.8262C8.70215 23.0215 8.77051 23.1875 8.90723 23.3242C9.04395 23.4609 9.20996 23.5293 9.40527 23.5293ZM19.6299 10.082V8.61719H20.8018V11.2539L19.6299 10.082ZM15.5283 7.97266L20.9189 13.3633V22.123H10.1084V13.3633L15.5283 7.97266ZM14.6787 16.2637L14.9717 16.4102C14.9912 16.4297 15.0107 16.4395 15.0303 16.4395C15.0498 16.4395 15.0693 16.4492 15.0889 16.4688L15.2061 16.5273C15.6943 16.7617 16.0361 16.9619 16.2314 17.1279C16.4268 17.2939 16.5244 17.5527 16.5244 17.9043C16.5244 18.041 16.4707 18.2168 16.3633 18.4316C16.2559 18.6465 15.8506 18.7539 15.1475 18.7539C14.6592 18.7539 14.3516 18.6855 14.2246 18.5488C14.0977 18.4121 14.0342 18.3242 14.0342 18.2852C14.0146 18.1094 13.9365 17.958 13.7998 17.8311C13.6631 17.7041 13.4971 17.6406 13.3018 17.6406C13.1064 17.6406 12.9404 17.709 12.8037 17.8457C12.667 17.9824 12.5986 18.1484 12.5986 18.3438C12.5986 18.3633 12.5986 18.3779 12.5986 18.3877C12.5986 18.3975 12.5986 18.4121 12.5986 18.4316C12.6182 18.7051 12.7744 19.0371 13.0674 19.4277C13.3604 19.8184 13.8779 20.0625 14.6201 20.1602V20.6289C14.6201 20.8242 14.6885 20.9902 14.8252 21.127C14.9619 21.2637 15.1279 21.332 15.3232 21.332C15.5186 21.332 15.6846 21.2637 15.8213 21.127C15.958 20.9902 16.0264 20.8242 16.0264 20.6289V20.1016C16.5732 20.043 17.0322 19.8135 17.4033 19.4131C17.7744 19.0127 17.96 18.5391 17.96 17.9922C17.96 17.9727 17.96 17.9531 17.96 17.9336C17.96 17.9141 17.96 17.9043 17.96 17.9043C17.96 17.1035 17.7305 16.5225 17.2715 16.1611C16.8125 15.7998 16.3291 15.4922 15.8213 15.2383L15.4697 15.0625C15.4502 15.0625 15.4307 15.0576 15.4111 15.0479C15.3916 15.0381 15.3721 15.0234 15.3525 15.0039H15.2939C14.8447 14.7695 14.5469 14.5889 14.4004 14.4619C14.2539 14.335 14.1807 14.1445 14.1807 13.8906C14.1807 13.7734 14.2295 13.6318 14.3271 13.4658C14.4248 13.2998 14.7471 13.2168 15.2939 13.2168C15.626 13.2168 15.8555 13.2607 15.9824 13.3486C16.1094 13.4365 16.1826 13.5098 16.2021 13.5684C16.2021 13.5684 16.2021 13.5635 16.2021 13.5537C16.2021 13.5439 16.2021 13.5391 16.2021 13.5391L17.6084 13.4512C17.5498 13.041 17.374 12.6895 17.0811 12.3965C16.7881 12.1035 16.4463 11.9375 16.0557 11.8984H16.0264V11.0195C16.0264 10.8242 15.958 10.6582 15.8213 10.5215C15.6846 10.3848 15.5186 10.3164 15.3232 10.3164C15.1279 10.3164 14.9619 10.3848 14.8252 10.5215C14.6885 10.6582 14.6201 10.8242 14.6201 11.0195V11.8691C14.0928 11.8887 13.6533 12.0889 13.3018 12.4697C12.9502 12.8506 12.7744 13.3047 12.7744 13.832C12.7744 13.832 12.7744 13.8369 12.7744 13.8467C12.7744 13.8564 12.7744 13.8613 12.7744 13.8613C12.7744 14.6035 12.9795 15.1357 13.3896 15.458C13.7998 15.7803 14.2295 16.0488 14.6787 16.2637ZM1.84668 11.5176C1.88574 11.5176 1.91992 11.5127 1.94922 11.5029C1.97852 11.4932 2.00293 11.4883 2.02246 11.4883L5.74316 10.4922C5.89941 10.4531 6.02637 10.3701 6.12402 10.2432C6.22168 10.1162 6.27051 9.97461 6.27051 9.81836C6.27051 9.60352 6.20215 9.42773 6.06543 9.29102C5.92871 9.1543 5.7627 9.08594 5.56738 9.08594C5.52832 9.08594 5.49414 9.09082 5.46484 9.10059C5.43555 9.11035 5.40137 9.11523 5.3623 9.11523L3.28223 9.67188C3.84863 8.55859 4.55176 7.54297 5.3916 6.625C6.21191 5.6875 7.14453 4.8916 8.18945 4.2373C9.23438 3.58301 10.3623 3.08008 11.5732 2.72852C12.7842 2.35742 14.0439 2.17188 15.3525 2.17188C17.208 2.17188 18.9463 2.52344 20.5674 3.22656C22.208 3.92969 23.6387 4.88672 24.8594 6.09766C26.0801 7.30859 27.042 8.73438 27.7451 10.375C28.4482 11.9961 28.7998 13.7344 28.7998 15.5898C28.7998 15.7852 28.8682 15.9512 29.0049 16.0879C29.1416 16.2246 29.3076 16.293 29.5029 16.293C29.6982 16.293 29.8691 16.2246 30.0156 16.0879C30.1621 15.9512 30.2354 15.7852 30.2354 15.5898C30.2158 13.5391 29.8154 11.6152 29.0342 9.81836C28.2529 8.00195 27.1934 6.4248 25.8555 5.08691C24.5176 3.74902 22.9404 2.68945 21.124 1.9082C19.3271 1.12695 17.4033 0.736328 15.3525 0.736328C13.9072 0.736328 12.5205 0.941406 11.1924 1.35156C9.86426 1.74219 8.62891 2.29395 7.48633 3.00684C6.34375 3.71973 5.31348 4.57422 4.39551 5.57031C3.49707 6.56641 2.73535 7.66016 2.11035 8.85156L2.08105 8.93945L1.52441 6.88867C1.48535 6.73242 1.40234 6.60547 1.27539 6.50781C1.14844 6.41016 1.00684 6.36133 0.850586 6.36133C0.655273 6.36133 0.489258 6.43457 0.352539 6.58105C0.21582 6.72754 0.147461 6.89844 0.147461 7.09375C0.147461 7.11328 0.147461 7.1377 0.147461 7.16699C0.147461 7.19629 0.147461 7.23047 0.147461 7.26953L1.14355 10.9902C1.18262 11.127 1.26562 11.249 1.39258 11.3564C1.51953 11.4639 1.6709 11.5176 1.84668 11.5176ZM31.0557 22.5332L29.9717 18.9297C29.9326 18.793 29.8496 18.6758 29.7227 18.5781C29.5957 18.4805 29.4541 18.4316 29.2979 18.4316C29.2588 18.4316 29.2197 18.4316 29.1807 18.4316C29.1416 18.4316 29.1123 18.4414 29.0928 18.4609L25.4893 19.5449C25.333 19.584 25.2061 19.667 25.1084 19.7939C25.0107 19.9209 24.9619 20.0625 24.9619 20.2188C24.9619 20.4141 25.0352 20.5801 25.1816 20.7168C25.3281 20.8535 25.499 20.9219 25.6943 20.9219C25.7334 20.9219 25.7676 20.9219 25.7969 20.9219C25.8262 20.9219 25.8604 20.9121 25.8994 20.8926L27.9795 20.2773C27.4912 21.5664 26.8271 22.748 25.9873 23.8223C25.1475 24.8965 24.1807 25.8193 23.0869 26.5908C21.9932 27.3623 20.792 27.9629 19.4834 28.3926C18.1748 28.8223 16.8076 29.0371 15.3818 29.0371C13.5264 29.0371 11.7783 28.6855 10.1377 27.9824C8.49707 27.2793 7.07129 26.3174 5.86035 25.0967C4.64941 23.876 3.69238 22.4551 2.98926 20.834C2.28613 19.1934 1.93457 17.4453 1.93457 15.5898C1.93457 15.3945 1.86133 15.2285 1.71484 15.0918C1.56836 14.9551 1.39746 14.8867 1.20215 14.8867C1.00684 14.8867 0.84082 14.9551 0.704102 15.0918C0.567383 15.2285 0.499023 15.3945 0.499023 15.5898C0.499023 17.6406 0.889648 19.5645 1.6709 21.3613C2.45215 23.1777 3.5166 24.7598 4.86426 26.1074C6.21191 27.4551 7.78418 28.5098 9.58105 29.2715C11.3975 30.0527 13.3311 30.4434 15.3818 30.4434C16.9248 30.4434 18.4092 30.2187 19.835 29.7695C21.2412 29.3203 22.54 28.6904 23.7314 27.8799C24.9229 27.0693 25.9775 26.0977 26.8955 24.9648C27.8135 23.8516 28.5557 22.6211 29.1221 21.2734L29.1514 21.1562L29.6787 22.9434C29.7373 23.0801 29.8252 23.1924 29.9424 23.2803C30.0596 23.3682 30.1963 23.4121 30.3525 23.4121C30.5479 23.4121 30.7188 23.3438 30.8652 23.207C31.0117 23.0703 31.085 22.9043 31.085 22.709C31.085 22.6699 31.0801 22.6357 31.0703 22.6064C31.0605 22.5771 31.0557 22.543 31.0557 22.5039V22.5332Z" fill="#4154FA"/>
</svg>
